<svg id="Capa_1" enable-background="new 0 0 512 512" height="512" viewBox="0 0 512 512" width="512" xmlns="http://www.w3.org/2000/svg"><g><path d="m101.159 4.343h-42.231c-21.085 0-38.179 17.093-38.179 38.179v215.305l66.267 17.62 52.321-17.62v-215.306c.001-21.085-17.093-38.178-38.178-38.178z" fill="#f5dd81"/><path d="m253.358 150.545h-42.231c-21.085 0-38.178 17.093-38.178 38.179v69.103l63.268 17.62 55.321-17.62v-69.103c-.002-21.086-17.095-38.179-38.18-38.179z" fill="#e28086"/><path d="m408.316 66.148h-42.231c-21.085 0-38.178 17.093-38.178 38.179v153.5l66.19 17.62 52.398-17.62v-153.5c0-21.086-17.093-38.179-38.179-38.179z" fill="#b3e59f"/><path d="m100.038 271.063-13.025 4.383-66.263-17.615v-215.31c0-21.078 17.088-38.177 38.176-38.177h29.514c-21.089 0-38.177 17.098-38.177 38.177v215.31z" fill="#ffd064"/><path d="m249.984 271.063-13.77 4.383-63.266-17.615v-69.106c0-21.088 17.088-38.176 38.176-38.176h29.514c-21.089 0-38.187 17.088-38.187 38.176v69.106z" fill="#dd636e"/><path d="m407.135 271.063-13.036 4.383-66.191-17.615v-153.502c0-21.088 17.088-38.176 38.176-38.176h29.514c-21.088 0-38.187 17.088-38.187 38.176v153.502z" fill="#95d6a4"/><path d="m17.62 293.065h437.192c9.731 0 17.62-7.889 17.62-17.62 0-9.731-7.889-17.62-17.62-17.62h-437.192c-9.731 0-17.62 7.889-17.62 17.62 0 9.732 7.889 17.62 17.62 17.62z" fill="#7a8a93"/><path d="m68.878 287.9c3.194 3.194 7.592 5.161 12.465 5.161h-63.716c-4.862 0-9.272-1.967-12.465-5.161-3.194-3.183-5.162-7.582-5.162-12.454 0-9.735 7.891-17.616 17.627-17.616h63.717c-9.735 0-17.627 7.881-17.627 17.616 0 4.872 1.978 9.271 5.161 12.454z" fill="#687780"/><g><path d="m426.88 285.62-41.135 138.426h-109.283l-43.258-140.291v-.051h178.078c5.337 0 10.56.66 15.598 1.916z" fill="#dddaec"/><path d="m426.88 285.62-41.135 138.426h-15.072l-20.027-52.272c-14.371-37.499 8.448-78.912 47.832-86.793 4.296-.865 8.581-1.277 12.805-1.277 5.336 0 10.559.66 15.597 1.916z" fill="#d0cee7"/><path d="m248.659 284.978c-35.121-7.032-69.293 15.738-76.326 50.86l-21.03 105.033c-6.053 30.229 13.546 59.64 43.774 65.693 26.691 5.344 53.345-9.343 63.084-34.762l38.326-100.027c14.369-37.5-8.451-78.912-47.828-86.797z" fill="#f9f6f6"/><path d="m217.986 506.354c-3.872.861-7.873 1.3-11.919 1.3-3.634 0-7.305-.357-10.985-1.089-30.227-6.051-49.827-35.464-43.776-65.691l21.027-105.036c6.976-34.841 40.663-57.525 75.486-51.017-25.229 4.742-46.275 24.305-51.621 51.017l-21.027 105.036c-5.986 29.907 13.137 59.008 42.815 65.48z" fill="#dddaec"/><path d="m413.547 284.978c35.121-7.032 69.293 15.738 76.326 50.86l21.031 105.033c6.053 30.229-13.546 59.64-43.775 65.693-26.691 5.344-53.345-9.343-63.084-34.762l-38.326-100.027c-14.369-37.5 8.451-78.912 47.828-86.797z" fill="#f9f6f6"/><path d="m468.16 506.349c-.34.072-.69.144-1.04.216-3.678.742-7.355 1.092-10.992 1.092-22.716 0-43.69-13.939-52.086-35.851l-38.323-100.031c-14.371-37.499 8.448-78.912 47.821-86.793 8.437-1.69 16.813-1.659 24.776-.144-.268.041-.525.093-.793.144-39.374 7.881-62.192 49.295-47.832 86.793l38.333 100.031c6.892 17.998 22.273 30.618 40.136 34.543z" fill="#dddaec"/><path d="m252.007 338.09h-5.744v-5.744c0-8.356-6.774-15.13-15.13-15.13s-15.13 6.774-15.13 15.13v5.744h-5.744c-8.356 0-15.13 6.774-15.13 15.13 0 8.356 6.774 15.13 15.13 15.13h5.744v5.744c0 8.356 6.774 15.13 15.13 15.13s15.13-6.774 15.13-15.13v-5.744h5.744c8.356 0 15.13-6.774 15.13-15.13 0-8.357-6.774-15.13-15.13-15.13z" fill="#7a8a93"/><path d="m236.8 388.125c-1.749.705-3.662 1.099-5.666 1.099-8.358 0-15.123-6.774-15.123-15.132v-5.749h-5.749c-4.174 0-7.964-1.694-10.701-4.431s-4.431-6.509-4.431-10.692c0-8.358 6.774-15.132 15.132-15.132h5.749v-5.749c0-8.349 6.765-15.123 15.123-15.123 2.005 0 3.918.394 5.666 1.099-5.548 2.234-9.466 7.671-9.466 14.024v5.749h-5.749c-8.358 0-15.132 6.774-15.132 15.132 0 4.184 1.694 7.955 4.431 10.692s6.518 4.431 10.701 4.431h5.749v5.749c0 6.352 3.918 11.79 9.466 14.033z" fill="#687780"/><circle cx="445.361" cy="332.346" fill="#e28086" r="15.13"/><circle cx="404.443" cy="362.606" fill="#e28086" r="15.13"/><path d="m451.26 346.284c-1.812.769-3.808 1.19-5.895 1.19-8.358 0-15.132-6.774-15.132-15.132s6.774-15.132 15.132-15.132c2.087 0 4.083.421 5.895 1.19-5.428 2.298-9.237 7.68-9.237 13.942 0 6.261 3.808 11.644 9.237 13.942z" fill="#dd636e"/><path d="m410.34 376.548c-1.813.769-3.808 1.19-5.895 1.19-8.358 0-15.132-6.774-15.132-15.132s6.774-15.132 15.132-15.132c2.087 0 4.083.421 5.895 1.19-5.419 2.298-9.228 7.68-9.228 13.942.001 6.261 3.809 11.644 9.228 13.942z" fill="#dd636e"/><path d="m340.163 399.676h-18.128c-6.059 0-10.97-4.912-10.97-10.97 0-6.059 4.912-10.97 10.97-10.97h18.128c6.059 0 10.97 4.912 10.97 10.97 0 6.059-4.911 10.97-10.97 10.97z" fill="#7a8a93"/><path d="m334.572 399.673h-12.532c-6.06 0-10.976-4.907-10.976-10.967 0-3.03 1.227-5.776 3.213-7.763 1.986-1.986 4.733-3.213 7.763-3.213h12.532c-3.03 0-5.776 1.227-7.763 3.213s-3.213 4.733-3.213 7.763c0 6.06 4.916 10.967 10.976 10.967z" fill="#687780"/></g></g></svg>